<?xml version="1.0" encoding="utf-8"?>
<!-- Generator: Adobe Illustrator 18.0.0, SVG Export Plug-In . SVG Version: 6.00 Build 0)  -->
<!DOCTYPE svg PUBLIC "-//W3C//DTD SVG 1.1//EN" "http://www.w3.org/Graphics/SVG/1.1/DTD/svg11.dtd">
<svg version="1.1" xmlns="http://www.w3.org/2000/svg" xmlns:xlink="http://www.w3.org/1999/xlink" x="0px" y="0px"
	 viewBox="0 0 489 572" enable-background="new 0 0 489 572" xml:space="preserve">
<g id="Layer_3">
</g>
<g id="Layer_2">
	<g>
		<g>
			<polygon fill="#020202" points="160.9,212.9 318.1,215.4 160.9,217.9 			"/>
		</g>
		<g>
			<polygon fill="#020202" points="134.9,253 330.2,255.5 134.9,258 			"/>
		</g>
		<g>
			<polygon fill="#020202" points="118.1,284.9 361.9,287.4 118.1,289.9 			"/>
		</g>
		<g>
			<polygon fill="#020202" points="122.9,312.2 345.3,314.7 122.9,317.2 			"/>
		</g>
		<g>
			<polygon fill="#020202" points="140.6,241 343.8,243.5 140.6,246 			"/>
		</g>
		<g>
			<polygon fill="#020202" points="150.5,360.8 298.1,363.3 150.5,365.8 			"/>
		</g>
		<g>
			<polygon fill="#020202" points="170.7,389.3 318.3,391.8 170.7,394.3 			"/>
		</g>
		<g>
			<polygon fill="#020202" points="125.5,269.3 273.2,271.8 125.5,274.3 			"/>
		</g>
		<g>
			<polygon fill="#020202" points="154.1,198.3 301.7,200.8 154.1,203.3 			"/>
		</g>
		<g>
			<polygon fill="#020202" points="160.6,373.6 248.8,376.1 160.6,378.6 			"/>
		</g>
		<g>
			<polygon fill="#020202" points="138.6,338 334.7,340.5 138.6,343 			"/>
		</g>
		<g>
			<defs>
				<polygon id="SVGID_1_" points="142.8,243.5 113.4,291.3 180.8,412.9 318.1,410.5 382.9,298.4 320.2,177.6 260.8,54 199.3,45.5 
					98,101.8 90.5,212.8 109.5,251.5 				"/>
			</defs>
			<clipPath id="SVGID_2_">
				<use xlink:href="#SVGID_1_"  overflow="visible"/>
			</clipPath>
			<path clip-path="url(#SVGID_2_)" fill="#020202" d="M331.6,299.6c-5.3-8.1-15.5-11.9-15.5-11.9l-34-13.6c-0.1,0-6.4-3.6-6.5-3.7
				l-3.5-4.3c-0.2-0.1-0.3-0.3-0.4-0.5l-17.6-52.1c-0.1-0.2-0.2-0.4-0.4-0.6l-7.2-4.9c-0.4-0.3-0.6-0.8-0.5-1.2l3.1-11.8
				c0.1-0.2,0-0.4,0-0.7l-3.2-9.2c-0.1-0.1-0.1-0.3-0.1-0.4c0.2-3.2,2.9-39.3,9.9-50.2c0,0,0-0.1,0.1-0.1c0.5-1.3,8.1-20.2,6.6-22.4
				c-1.6-2.3-11.6,5.4-16.1,20.2c-4.6,14.8-4,20.7-4,20.7s-0.3-29.4,7.2-43.5c6.2-11.7,9.6-24.3,10.5-28.2c0.1-0.6-1.8-1.1-2.4-0.9
				c-4,1.2-14.9,7.3-20.7,39.2c-0.1,0.4-0.4,0.7-0.8,0.6l-0.6,0c-0.4,0-0.8-0.4-0.7-0.8c0.4-4.8,3.2-31,14.8-54.8c1-2-1.2-4.1-3.1-3
				c-2.8,1.6-7,6.6-13.9,20.2c0,0-5.8,11.5-6,24.3c0,0.3-0.1,0.6-0.4,0.8l-1.7,1.5c-0.7,0.6-1.8,0.2-1.9-0.8
				c-0.3-8.9-1-39.9,3.4-50.2c0,0,2-5.6-8,3.8c-0.1,0.1-1.3,1.7-1.3,1.9c-0.8,2.9-7.2,30-7,38.3c0,0.3-0.1,0.5-0.3,0.7l-3.3,4
				c-0.5,0.7-1.6,0.5-1.9-0.3c-2.2-5.7-9.2-23.6-12.6-30.2c-0.4-0.8-1.6-0.8-2,0.1l0,0c0,0.1-0.4,0.1-0.4,0.2l0.3,27.4
				c0,0.1,0,0.2,0,0.3c0.4,1.3,2.9,10,6.6,15.6c0.5,0.7,0,1.6-0.8,1.7l-1.6,0.2c-0.4,0-0.8-0.1-1-0.4c-2.1-2.6-12.7-15.5-19.8-19.3
				c-0.6-0.3-1.4-0.1-1.6,0.6c-0.6,2.1-1.1,7.5,3.2,20.8c0.3,1-0.9,1.9-1.7,1.3c-4.2-3.1-11.5-7.7-12.3-1.8c0,0.1,0,0.2,0,0.3
				c0.1,1,1.1,6.9,3.3,12.6c0.3,0.8-0.3,1.6-1.1,1.5c-3.2-0.1-9.4,0.2-6.9,4.5c0.1,0.1,0.1,0.2,0.1,0.4c0.2,1.1,1.3,7.2,3.8,9.6
				c2.6,2.4,7.4,6.5,8.2,9c0.1,0.4,0.4,0.7,0.8,0.8l4.9,1.1c0.2,0,0.4,0.2,0.6,0.3c1,1.1,5.2,5.5,4.3,5.9c-1,0.4-17-2-20.7-0.5
				c-3.3,1.3-2.2,3.9-1.5,4.9c0.1,0.1,2.4,2.2,2.5,2.3c1.1,0.5,6.1,2.9,15.1,4.3c0.2,0,0.4,0.1,0.5,0.3c0.9,0.8,4.3,3.8,3,4.2
				c-1.5,0.4-21.3,1.3-22.9,1.7c-1.6,0.5-5.5,1.6-5.4,4.2c0.1,2.6,2.8,2.6,2.8,3.9c0.1,1.2-6.6,5.8-6.4,7.5s2.4,2,2.5,3.3
				s-2,1.6-1.5,4.1c0.4,2.1,3.1,2.9,3.9,3c0.1,0,0.2,0,0.4,0l5.4-0.6c1-0.1,1.6,1,1,1.8c-0.7,0.9-1.6,1.8-2.6,2
				c-0.5,0.1-0.8,0.6-0.7,1.1l0,0.4c0.1,0.6-0.4,1.2-1,1.2c-1.6,0.2-4.5,0.7-4.3,2.4c0.3,2.4-0.1,4.5,8.9,4.3l5-0.1
				c1.2,0,1.6,1.5,0.6,2.1c-4.3,2.4-10.4,6.5-10.4,10.3c0,0.5,0.4,0.9,0.8,1c2.1,0.5,7.7,2.2,7.8,3.9c0.1,2.1-5.5,5.4-4.1,9.1
				c1.4,3.7,5.4,2.1,5.5,3.5c0.1,1.4-2.6,2.2-2.1,3.7c0.5,1.4,3.7,2,3.9,3.2c0.3,1.2-3,2.9-2.2,4.9c0.8,2,3.9,2,3.9,3.7
				c0,1.1-1.2,3-2,4.2c-0.4,0.6-0.1,1.4,0.6,1.7l4.2,1.5c0.1,0,0.1,0,0.2,0c0.7,0.1,4.5,0.8,4.5,1.5c0.1,0.6-4.6,1.8-6.3,2.2
				c-0.4,0.1-0.8,0-1.1-0.4l-6.9-8.3c-0.2-0.3-0.5-0.4-0.8-0.4c-1.8,0-7.9,0-7.9,1.4c0,0.9,1,3.2,1.8,4.9c0.4,0.9-0.4,1.9-1.4,1.6
				c-5.3-1.7-17.3-5.3-22-4.8c-3.5,0.4,1.6,3.2,6.7,5.5c1.2,0.5,0.7,2.3-0.6,2.1c-10-1.2-25.5-2.5-25.7,0.8c-0.2,3,0.3,5,0.7,6.2
				c0.2,0.6-0.1,1.3-0.8,1.5l-6.6,1.6c-1,0.2-1.2,1.6-0.3,2.1l13.5,7.5c0.7,0.4,0.8,1.5,0.1,1.9l-17.4,11c-0.6,0.4-0.7,1.3-0.1,1.8
				l2.5,2.2c0.6,0.5,0.5,1.4-0.2,1.8l-7.1,4c-0.7,0.4-0.6,1.5,0.2,1.8h0c1,0.3,0.9,1.7-0.1,1.9l-0.7,0.1c-0.9,0.2-0.8,1.5,0.2,1.5
				h2.5c0.1,0,0.2,0,0.3,0l22.7-5.7c1.1-0.3,1.9,1.1,1.1,1.9l-5.4,5.6c-0.8,0.8-0.1,2.1,1,1.9l28.4-4.6c1-0.2,1.7,0.9,1.1,1.7
				l-1.1,1.7c-0.5,0.7,0,1.8,0.9,1.8h31.6c0.2,0,0.3,0,0.5,0.1l13.2,6.4l-2,1c-3.4,1.7-9.8,5.3-9.6,8.2c0.2,3.4,3.1,7.1,3.9,8
				c0.1,0.2,0.2,0.3,0.2,0.5l1.4,8.2c0.1,0.8-0.5,1.4-1.3,1.3l-7.9-1.4c-0.7-0.1-1.4,0.5-1.3,1.2c0.1,0.8,0.1,1.9-0.1,3l0,0l6.9,1.1
				c0.4,0.1,0.8,0.4,0.9,0.8l1,3.9c0.1,0.5-0.1,1.1-0.6,1.3c-1.5,0.7-2.1,0.6-4.8-2.7c-0.4-0.5-0.8-1-1.1-1.4
				c-0.4-0.5-1.5-1.3-2-0.8c-0.2,0.2-0.4,0.3-0.6,0.5c-0.4,0.2-0.6,0.7-0.5,1.2c0.1,0.8,0.4,1.7,1,2.8c1.5,2.8,1.8,6.2,6.3,6.3
				c1.3,0,2.3,0,3.1-0.2c0.9-0.1,1.6,0.7,1.2,1.6l-1.2,2.8c-0.1,0.1-0.1,0.3-0.3,0.4l-4.3,4.1c-0.2,0.2-0.3,0.4-0.3,0.6l-0.7,3.1
				l-0.1,0.7l12.9-10.3c0.3-0.2,0.4-0.6,0.4-0.9l-0.7-17.9c0-0.4,0.2-0.8,0.5-1l47.2-28.4c0.1-0.1,0.2-0.1,0.3-0.2
				c0.6-0.7,3.4-4.2,3.5-6.8c0-0.5,0.3-0.9,0.8-1.1c5.1-1.7,31.6-10.6,34.8-14c0.2-0.2,0.5-0.3,0.7-0.3l10.6-1.2l16-1.6
				c0.2,0,0.3-0.1,0.4-0.1l4-2.2c0.1-0.1,0.3-0.1,0.4-0.1l15.6-1.5c0.2,0,0.3-0.1,0.5-0.2l1.7-1.1c0.3-0.2,0.7-0.2,1-0.1l1.4,0.6
				c0.1,0,0.2,0.1,0.4,0.1l2.6,0.2c0,0,0.8-0.2,1.1,0.3c2.5,4.6,2.5,0.5,2.7-0.5C336.6,306.5,333.8,302.8,331.6,299.6z"/>
		</g>
		<polygon fill="none" stroke="#020202" stroke-width="6" stroke-miterlimit="10" points="180.8,412.9 112.9,295.2 180.8,177.6 
			316.7,177.6 384.6,295.2 316.7,412.9 		"/>
		<path fill="#020202" d="M272.7,261.3l-7.3-20.9c-0.1-0.2,0-0.3,0.1-0.4l30.3-32.7c0.3-0.3,2.2-0.4,2.2-0.1
			c0.2,2.5,0,10.5-12.2,26.5c-0.1,0.1-0.1,0.2,0,0.3c1.2,1.7-1.2,14.2-10.4,27.2C274.7,262.2,273.9,261.6,272.7,261.3z"/>
		<path fill="#FFFFFF" d="M320.2,296.4v1.9c0,0.6,0.5,1.1,1.1,1.1h2.3c1,0,1.7-0.5,0.7-1c-0.7-0.3-1.9-1.9-3.1-2.7
			C320.4,295.2,320.2,295.5,320.2,296.4z"/>
		<path fill="none" stroke="#44BFD3" stroke-width="3" stroke-miterlimit="10" d="M313.5,287.4c0,0-37.2-13.2-39.1-16.3"/>
		<path fill="none" stroke="#44BFD3" stroke-width="4" stroke-miterlimit="10" d="M259.6,80.4c0.3,2.8-9.4,24.1-9.4,24.1
			s-9.9,27.6-10.1,50.3"/>
		<path fill="none" stroke="#44BFD3" stroke-width="3" stroke-miterlimit="10" d="M248,62.6c0,0,2-0.6,2.2,0
			c0.2,0.6-11.7,24.7-13.7,37.3s-2.2,19.6-2.2,19.6s-2.2,34.1,0,40.8"/>
		<path fill="none" stroke="#44BFD3" stroke-width="3" stroke-miterlimit="10" d="M219,62.3c8-7.6,7-4.9,7-4.9
			c-4.1,8.5-4.3,29.4-4.3,29.4s-1.8,55.9,7.5,73.4"/>
		<path fill="none" stroke="#44BFD3" stroke-width="3" stroke-miterlimit="10" d="M294.9,210.3l2.4-2.6c0,0,1.1,4.9-11.1,23.1"/>
		<path fill="none" stroke="#44BFD3" stroke-width="3" stroke-miterlimit="10" d="M284.6,235.5c0,0,0.2,10.2-10.6,26.7"/>
		<path fill="none" stroke="#44BFD3" stroke-width="4" stroke-miterlimit="10" d="M191,77c0,0-1.5-3.5,0-1.4s11.7,28.9,11.7,28.9
			l19.3,55.8"/>
		<path fill="none" stroke="#44BFD3" stroke-width="3" stroke-miterlimit="10" d="M172.5,101.8c5.9,2.1,20,20,20,20h3.3
			c0,0,9.1,34.3,21,41"/>
		<path fill="none" stroke="#44BFD3" stroke-width="3" stroke-miterlimit="10" d="M161.7,121.1c4-3.6,14.1,6.3,14.1,6.3
			s27.9,37.9,34.9,38.2"/>
		<path fill="none" stroke="#44BFD3" stroke-width="3" stroke-miterlimit="10" d="M156,139.3c2-2.9,8.6-1.4,8.6-1.4
			s29.8,25.5,41.5,30.4"/>
		<path fill="none" stroke="#44BFD3" stroke-width="3" stroke-miterlimit="10" d="M157.1,170.5c-1.7-4.3,16.4-1.9,16.4-1.9
			s25.8,5.6,30.5,4.6"/>
		<path fill="none" stroke="#44BFD3" stroke-width="3" stroke-miterlimit="10" d="M150.8,190c-3.5-6.6,23.8-4.5,23.8-4.5l29.3-3.7"
			/>
		<line fill="none" stroke="#44BFD3" stroke-width="3" stroke-miterlimit="10" x1="147.1" y1="200.8" x2="150.5" y2="197.7"/>
		<path fill="none" stroke="#44BFD3" stroke-width="3" stroke-miterlimit="10" d="M147.6,208.6c-0.5-3.1,1.2-3.3,1.2-3.3"/>
		<path fill="none" stroke="#8E8E8E" stroke-miterlimit="10" d="M331.4,298.4"/>
		<path fill="none" stroke="#8E8E8E" stroke-miterlimit="10" d="M335.5,305.1"/>
		<path fill="none" stroke="#8E8E8E" stroke-miterlimit="10" d="M240.8,329c0,0,1,2.9-1.9,5.4"/>
		<path fill="none" stroke="#44BFD3" stroke-width="3" stroke-miterlimit="10" d="M163.3,276.9l-4.4-5c0,0-4.7-0.2-6.2,0"/>
		<path fill="none" stroke="#44BFD3" stroke-width="3" stroke-miterlimit="10" d="M151.3,280.3c0,0-14-5.6-21.5-5.4"/>
		<path fill="none" stroke="#44BFD3" stroke-width="3" stroke-miterlimit="10" d="M241.7,323.1c0,0,0.8,12.1-5,13.9"/>
		<path fill="none" stroke="#44BFD3" stroke-width="3" stroke-miterlimit="10" d="M330.2,298.8c-1.3,0.8,1.9,3.1,4,7"/>
		<path fill="none" stroke="#44BFD3" stroke-width="3" stroke-miterlimit="10" d="M154.5,234.9c0,0,14.3-14.5,26.7-14.6"/>
		<path fill="none" stroke="#44BFD3" stroke-width="3" stroke-miterlimit="10" d="M181.2,349.3c1.2-4.6,8.8-7,8.8-7l0.3-1.9l0,0"/>
		<line fill="none" stroke="#44BFD3" stroke-width="2" stroke-miterlimit="10" x1="182.6" y1="368.5" x2="174.6" y2="367"/>
		<path fill="none" stroke="#44BFD3" stroke-width="2" stroke-miterlimit="10" d="M174,374.8c0,0,1.4,6.1,6.8,5.9c0,0,8.8,3,7-4.9"
			/>
		<polyline fill="none" stroke="#44BFD3" stroke-width="6" stroke-miterlimit="10" points="269.7,265.3 252.6,214.1 243.7,209.7 		
			"/>
		<path fill="none" stroke="#44BFD3" stroke-width="5" stroke-miterlimit="10" d="M246.8,195.2l-4.6-10l4.6-28.9
			c0,0,9.9-35.1,13.9-41c1.2-1.8-1.6,0.1-1.8,0.5"/>
		<polyline fill="none" stroke="#44BFD3" stroke-width="2" stroke-miterlimit="10" points="190.6,367.7 192,384.6 182.1,391.8 		"/>
		<polyline fill="none" stroke="#44BFD3" stroke-width="3" stroke-miterlimit="10" points="142.6,285.3 133.4,283.8 124.8,282.8 		
			"/>
	</g>
	<g>
		<g>
			<path d="M66.3,467.9v5.5c-3.6,2-7.9,3-12.6,3c-3.9,0-7.2-0.8-9.9-2.3c-2.7-1.6-4.8-3.7-6.4-6.4c-1.6-2.7-2.4-5.7-2.4-8.9
				c0-5.1,1.8-9.3,5.4-12.7c3.6-3.4,8-5.2,13.3-5.2c3.6,0,7.7,1,12.1,2.9v5.3c-4.1-2.3-8-3.5-11.9-3.5c-4,0-7.3,1.3-9.9,3.8
				c-2.6,2.5-3.9,5.7-3.9,9.4c0,3.8,1.3,6.9,3.9,9.4c2.6,2.5,5.9,3.7,9.9,3.7C58.2,471.8,62.3,470.5,66.3,467.9z"/>
			<path d="M107.6,441.3h6l-12.8,16.3V476h-5.1v-18.4l-12.8-16.3h6l9.3,12L107.6,441.3z"/>
			<path d="M143.4,476h-11.8v-34.7h9.1c2.9,0,5.1,0.4,6.7,1.2c1.6,0.8,2.8,1.8,3.7,3.2c0.8,1.3,1.3,2.9,1.3,4.7
				c0,3.4-1.8,5.9-5.3,7.3c2.5,0.5,4.6,1.5,6,3.1c1.5,1.6,2.2,3.5,2.2,5.8c0,1.8-0.5,3.4-1.4,4.7c-0.9,1.4-2.2,2.5-4,3.4
				S146.1,476,143.4,476z M140.9,445.7h-4.3v10.4h3.3c2.7,0,4.5-0.5,5.7-1.5c1.1-1,1.7-2.3,1.7-3.9
				C147.3,447.4,145.2,445.7,140.9,445.7z M141.3,460.5h-4.6v11h4.9c2.7,0,4.6-0.2,5.5-0.6c1-0.4,1.7-1.1,2.3-2s0.9-1.9,0.9-2.9
				c0-1.1-0.3-2-0.9-2.9c-0.6-0.9-1.5-1.5-2.6-2S143.8,460.5,141.3,460.5z"/>
			<path d="M174.6,441.3h19.7v4.4h-14.7v10.6h14.2v4.4h-14.2v10.8h15.2v4.4h-20.1V441.3z"/>
			<path d="M214.4,476v-34.7h8.7c3.5,0,6.3,0.9,8.4,2.6c2.1,1.7,3.1,4.1,3.1,7.1c0,2-0.5,3.8-1.5,5.2c-1,1.5-2.5,2.6-4.3,3.3
				c1.1,0.7,2.2,1.7,3.3,3c1.1,1.3,2.6,3.5,4.5,6.6c1.2,2,2.2,3.5,2.9,4.4l1.8,2.5h-5.9l-1.5-2.3c0-0.1-0.1-0.2-0.3-0.4l-1-1.4
				l-1.5-2.5l-1.7-2.7c-1-1.4-2-2.6-2.8-3.4c-0.9-0.8-1.6-1.5-2.3-1.8c-0.7-0.4-1.8-0.6-3.5-0.6h-1.3V476H214.4z M220.9,445.5h-1.5
				v11h1.9c2.5,0,4.2-0.2,5.2-0.6s1.7-1.1,2.2-2c0.5-0.9,0.8-1.9,0.8-3c0-1.1-0.3-2.1-0.9-3c-0.6-0.9-1.4-1.5-2.4-1.9
				S223.3,445.5,220.9,445.5z"/>
			<path d="M283.7,441.3h5V476h-5v-15.1h-19.5V476h-5v-34.7h5v15h19.5V441.3z"/>
			<path fill="#44BFD3" d="M398.9,441.3h5l-14,34.9h-1.1l-11.3-28.2l-11.5,28.2h-1.1l-14-34.9h5l9.6,23.9l9.6-23.9h4.7l9.7,23.9
				L398.9,441.3z"/>
			<path d="M441.6,441.3h6.2l-15.1,16.5l18.8,18.2h-6.8l-17.7-17.1V476h-5v-34.7h5v15.9L441.6,441.3z"/>
		</g>
		<polygon points="325.1,441.1 321.6,441.1 306.7,476 311.8,476 315.3,467.8 315.3,467.8 315.6,467.1 316.2,465.7 316.2,465.7 
			318.2,461.3 323.3,448.7 328.9,461.3 328.9,461.3 330.9,465.7 331,465.7 335.6,476 340.7,476 		"/>
	</g>
</g>
</svg>
